<?xml version="1.0" standalone="no"?>
<!DOCTYPE svg PUBLIC "-//W3C//DTD SVG 20010904//EN"
 "http://www.w3.org/TR/2001/REC-SVG-20010904/DTD/svg10.dtd">
<svg version="1.0" xmlns="http://www.w3.org/2000/svg"
 width="357.000000pt" height="411.000000pt" viewBox="0 0 357.000000 411.000000"
 preserveAspectRatio="xMidYMid meet">

<g transform="translate(0.000000,411.000000) scale(0.100000,-0.100000)"
fill="#000000" stroke="none">
<path d="M60 4090 c0 -6 -7 -54 -15 -108 -56 -376 -30 -763 70 -1052 70 -199
147 -322 289 -458 124 -118 241 -193 496 -319 249 -122 309 -160 406 -257 188
-187 322 -505 325 -771 l0 -70 105 -67 104 -68 0 643 c0 353 -5 719 -10 812
-21 340 -66 556 -160 752 -67 142 -138 241 -255 358 -243 245 -642 441 -1168
575 -168 43 -187 46 -187 30z m798 -782 c394 -241 661 -620 787 -1117 55 -218
76 -457 53 -616 l-13 -90 -33 165 c-123 622 -277 998 -550 1345 -59 74 -290
310 -357 364 l-40 32 43 -21 c24 -12 74 -40 110 -62z"/>
<path d="M3100 3460 c-661 -125 -1056 -471 -1135 -997 -16 -105 -18 -232 -5
-273 5 -17 8 -19 9 -7 2 29 75 166 139 263 121 179 289 346 468 465 121 80
122 81 84 63 -218 -104 -520 -415 -652 -673 l-43 -84 -3 57 c-2 31 4 105 12
164 75 542 469 892 1139 1012 l99 18 -7 -87 c-25 -314 -109 -562 -250 -737
-128 -161 -305 -276 -544 -354 -91 -29 -300 -74 -309 -66 -8 9 135 240 213
345 77 102 229 264 335 355 l55 48 -48 -33 c-160 -110 -435 -448 -551 -677
-32 -63 -36 -61 118 -32 188 37 387 116 527 211 280 188 434 501 465 942 6 79
4 97 -7 96 -8 0 -57 -9 -109 -19z"/>
<path d="M2695 2103 c-398 -51 -673 -289 -741 -641 -19 -101 -18 -102 18 -46
57 86 197 222 298 289 85 57 228 131 236 122 2 -1 -38 -30 -88 -62 -109 -71
-300 -256 -378 -364 l-52 -74 83 7 c460 38 758 268 882 682 l25 82 -30 6 c-32
6 -202 6 -253 -1z"/>
</g>
</svg>
